<?xml version="1.0" encoding="UTF-8"?>
<svg data-id="Capa_1" data-name="Capa 1" xmlns="http://www.w3.org/2000/svg" viewBox="0 0 261.16 261.16">
  <defs>
    <style>
      .cls-1 {
        fill: #7f1ce8;
      }

      .cls-1, .cls-2, .cls-3, .cls-4, .cls-5 {
        stroke-width: 0px;
      }

      .cls-2 {
        fill: #0acf83;
      }

      .cls-3 {
        fill: #08a2ed;
      }

      .cls-4 {
        fill: #0b223d;
      }

      .cls-5 {
        fill: #f66c6b;
      }
    </style>
  </defs>
  <!-- <g>
    <path class="cls-4" d="M368.74,144.26l-17.86,19.23v45.58c0,1.13-.92,2.05-2.05,2.05h-30.25c-1.13,0-2.05-.92-2.05-2.05V47.14c0-1.5,1.21-2.71,2.71-2.71h28.93c1.5,0,2.71,1.21,2.71,2.71v72.85l15.11-20.72,42.03-54.26c.28-.37.72-.58,1.18-.58h39.65c.75,0,1.17.87.7,1.46l-58.03,72.62,60.02,91.27c.38.58-.03,1.35-.73,1.35h-38.44c-.51,0-.98-.26-1.26-.69l-42.38-66.17Z"/>
    <path class="cls-4" d="M495,211.12h-29.52c-1.02,0-1.84-.82-1.84-1.84V46.27c0-1.02.82-1.84,1.84-1.84h29.52c1.02,0,1.84.82,1.84,1.84v163.02c0,1.02-.82,1.84-1.84,1.84Z"/>
    <path class="cls-4" d="M586.18,209.98c-1.25-2.76-2.17-6.09-2.77-9.96-8.02,8.93-18.43,13.4-31.26,13.4-12.14,0-22.19-3.51-30.17-10.53-7.98-7.02-11.96-15.87-11.96-26.56,0-13.13,4.87-23.2,14.6-30.23,9.73-7.02,23.79-10.57,42.19-10.65h13.23c1.11,0,2-.9,2-2v-5.1c0-5.72-1.47-10.3-4.41-13.74-2.94-3.43-7.58-5.15-13.91-5.15-5.57,0-9.94,1.34-13.11,4.01-2.76,2.33-4.32,5.42-4.67,9.26-.09,1-.97,1.73-1.97,1.73-5.77,0-23.13,0-29.13,0-1.13,0-2.07-.94-2-2.07.39-6.38,2.58-12.33,6.58-17.85,4.43-6.11,10.69-10.89,18.78-14.37,8.09-3.47,17.17-5.21,27.25-5.21,15.26,0,27.38,3.84,36.35,11.51,8.97,7.67,13.45,18.45,13.45,32.34v53.69c.07,11.75,1.72,20.65,4.92,26.67v1.95h-32.15c-.78,0-1.51-.43-1.83-1.14ZM559.37,188.11c4.88,0,9.39-1.09,13.51-3.26,3.94-2.08,6.9-4.84,8.89-8.27.18-.31.27-.68.27-1.04v-18.74c0-1.11-.9-2-2-2h-10.36c-16.56,0-25.38,5.72-26.45,17.17l-.11,1.95c0,4.12,1.45,7.52,4.35,10.19,2.9,2.67,6.87,4.01,11.91,4.01Z"/>
    <path class="cls-4" d="M702.44,209.83c-1.21-2.73-2.11-6.01-2.7-9.81-8.02,8.93-18.43,13.4-31.26,13.4-12.14,0-22.19-3.51-30.17-10.53-7.98-7.02-11.96-15.87-11.96-26.56,0-13.13,4.87-23.2,14.6-30.23,9.73-7.02,23.79-10.57,42.19-10.65h12.97c1.25,0,2.26-1.01,2.26-2.26v-4.84c0-5.72-1.47-10.3-4.41-13.74-2.94-3.43-7.58-5.15-13.91-5.15-5.57,0-9.94,1.34-13.11,4.01-2.71,2.29-4.26,5.3-4.65,9.04-.12,1.12-1.1,1.95-2.23,1.95h-28.62c-1.28,0-2.35-1.06-2.26-2.34.43-6.28,2.62-12.15,6.56-17.58,4.43-6.11,10.69-10.89,18.78-14.37,8.09-3.47,17.17-5.21,27.25-5.21,15.26,0,27.38,3.84,36.35,11.51,8.97,7.67,13.45,18.45,13.45,32.34v53.69c.07,11.75,1.72,20.65,4.92,26.67v1.95s-25.58,0-31.99,0c-.88,0-1.7-.49-2.06-1.29ZM675.7,188.11c4.88,0,9.39-1.09,13.51-3.26,3.91-2.07,6.86-4.8,8.85-8.21.21-.35.31-.76.31-1.16,0-2.71,0-13.65,0-18.43,0-1.25-1.01-2.25-2.26-2.25h-10.11c-16.56,0-25.38,5.72-26.45,17.17l-.11,1.95c0,4.12,1.45,7.52,4.35,10.19,2.9,2.67,6.87,4.01,11.91,4.01Z"/>
    <path class="cls-4" d="M792.09,164.3l22.65-76.21c.15-.5.61-.84,1.13-.84h32.95c.81,0,1.38.8,1.12,1.57l-49.26,141.54-2.75,6.53c-7.4,16.18-19.62,24.27-36.64,24.27-4.19,0-8.44-.55-12.75-1.65-1.12-.29-1.91-1.32-1.91-2.48v-19.02c0-2.92,1.18-4.06,2.62-4.03l2.42.06c6.26,0,10.93-.96,14.03-2.86,3.09-1.91,5.51-5.08,7.27-9.5l3.89-10.19-42.84-122.65c-.27-.77.3-1.57,1.11-1.57h33.06c.52,0,.98.34,1.13.84l22.76,76.21Z"/>
  </g> -->
  <g>
    <path class="cls-1" d="M50.75,232.96v-39.67l-16.63-9.86c-10.73-6.36-24.59-2.82-30.96,7.91h0c-6.36,10.73-2.82,24.59,7.91,30.96l50.21,29.76c-6.33-4-10.53-11.06-10.53-19.1Z"/>
    <path class="cls-1" d="M110.6,183.54v-39.67l-14.66-8.69v52.53l25.19,14.93c-6.33-4-10.53-11.06-10.53-19.1Z"/>
    <path class="cls-1" d="M171.12,135.51v-39.67l-15.34-9.09v52.53l25.87,15.34c-6.33-4-10.53-11.06-10.53-19.1Z"/>
    <path class="cls-5" d="M95.94,120.04c0-12.48-10.12-22.59-22.59-22.59s-22.59,10.12-22.59,22.59v112.92c0,8.04,4.21,15.1,10.53,19.1,3.49,2.21,7.62,3.49,12.06,3.49,10.29,0,18.97-6.89,21.7-16.3,0,0,0,0,0,0,.1-.33.18-.67.27-1,.01-.06.03-.12.04-.19.06-.28.12-.56.18-.84.02-.12.04-.24.06-.36.04-.23.08-.45.11-.68.03-.18.05-.35.07-.53.02-.18.04-.35.06-.53.02-.23.04-.46.05-.69,0-.13.02-.27.02-.4.01-.27.02-.53.02-.8,0-.08,0-.17,0-.25v-112.92Z"/>
    <path class="cls-3" d="M155.78,70.62c0-12.48-10.12-22.59-22.59-22.59h0c-12.48,0-22.59,10.12-22.59,22.59v112.92c0,8.04,4.21,15.1,10.53,19.1,3.49,2.21,7.62,3.49,12.06,3.49h0c10.29,0,18.97-6.89,21.7-16.3,0,0,0,0,0-.01.1-.33.18-.66.26-1,.02-.06.03-.13.04-.19.06-.28.12-.55.18-.83.02-.12.04-.25.07-.37.04-.22.08-.45.11-.67.03-.18.05-.36.07-.54.02-.18.04-.35.06-.53.02-.23.04-.46.05-.69,0-.13.02-.27.02-.4.01-.27.02-.54.02-.81,0-.08,0-.16,0-.24v-112.92Z"/>
    <path class="cls-2" d="M215.68,140.79c.01-.06.03-.12.04-.19.06-.28.12-.56.18-.84.02-.12.04-.24.06-.36.04-.23.08-.45.11-.68.03-.18.05-.35.07-.53.02-.18.04-.36.06-.53.02-.23.04-.46.05-.69,0-.14.02-.27.03-.41.01-.27.02-.53.02-.8,0-.08,0-.17,0-.25V22.59c0-12.48-10.12-22.59-22.59-22.59h0c-12.48,0-22.59,10.12-22.59,22.59v112.92c0,8.04,4.21,15.1,10.53,19.1,3.49,2.21,7.62,3.49,12.06,3.49h0c10.29,0,18.97-6.89,21.7-16.3,0,0,0,0,0,0,.1-.33.18-.67.27-1Z"/>
  </g>
</svg>